HIERARCHY
ROOT mixamorig1:Hips
{
	OFFSET 0.000000 100.052002 0.000000
	CHANNELS 6 Xposition Yposition Zposition Xrotation Yrotation Zrotation
	JOINT mixamorig1:Spine
	{
		OFFSET 0.000000 9.717300 -1.180200
		CHANNELS 6 Xposition Yposition Zposition Xrotation Yrotation Zrotation
		JOINT mixamorig1:Spine1
		{
			OFFSET 0.000000 11.336784 -1.376941
			CHANNELS 3 Xrotation Yrotation Zrotation
			JOINT mixamorig1:Spine2
			{
				OFFSET 0.000000 12.956383 -1.573654
				CHANNELS 3 Xrotation Yrotation Zrotation
				JOINT mixamorig1:Neck
				{
					OFFSET 0.000000 14.575882 -1.770355
					CHANNELS 6 Xposition Yposition Zposition Xrotation Yrotation Zrotation
					JOINT mixamorig1:Head
					{
						OFFSET 0.000000 6.720200 1.972200
						CHANNELS 6 Xposition Yposition Zposition Xrotation Yrotation Zrotation
						JOINT mixamorig1:HeadTop_End
						{
							OFFSET 0.000000 20.999802 6.162800
							CHANNELS 6 Xposition Yposition Zposition Xrotation Yrotation Zrotation
							End Site
							{
								OFFSET 0.000000 21.885422 0.000000
							}
						}
					}
				}
				JOINT mixamorig1:LeftShoulder
				{
					OFFSET 6.140200 12.877686 -1.799413
					CHANNELS 6 Xposition Yposition Zposition Xrotation Yrotation Zrotation
					JOINT mixamorig1:LeftArm
					{
						OFFSET 12.558889 -3.380020 -0.058110
						CHANNELS 3 Xrotation Yrotation Zrotation
						JOINT mixamorig1:LeftForeArm
						{
							OFFSET 25.560802 0.000000 0.000000
							CHANNELS 3 Xrotation Yrotation Zrotation
							JOINT mixamorig1:LeftHand
							{
								OFFSET 23.404095 0.000000 0.000000
								CHANNELS 3 Xrotation Yrotation Zrotation
								JOINT mixamorig1:LeftHandThumb1
								{
									OFFSET 4.128799 -1.207092 2.573364
									CHANNELS 6 Xposition Yposition Zposition Xrotation Yrotation Zrotation
									JOINT mixamorig1:LeftHandThumb2
									{
										OFFSET 3.106247 -1.793396 1.793392
										CHANNELS 6 Xposition Yposition Zposition Xrotation Yrotation Zrotation
										JOINT mixamorig1:LeftHandThumb3
										{
											OFFSET 2.788620 -1.610016 1.610011
											CHANNELS 6 Xposition Yposition Zposition Xrotation Yrotation Zrotation
											JOINT mixamorig1:LeftHandThumb4
											{
												OFFSET 2.332939 -1.346924 1.346924
												CHANNELS 6 Xposition Yposition Zposition Xrotation Yrotation Zrotation
												End Site
												{
													OFFSET 2.098068 -1.306122 1.721387
												}
											}
										}
									}
								}
								JOINT mixamorig1:LeftHandIndex1
								{
									OFFSET 11.999931 -0.333878 2.508170
									CHANNELS 6 Xposition Yposition Zposition Xrotation Yrotation Zrotation
									JOINT mixamorig1:LeftHandIndex2
									{
										OFFSET 3.298477 0.000000 0.000000
										CHANNELS 6 Xposition Yposition Zposition Xrotation Yrotation Zrotation
										JOINT mixamorig1:LeftHandIndex3
										{
											OFFSET 3.081009 0.000000 0.000000
											CHANNELS 6 Xposition Yposition Zposition Xrotation Yrotation Zrotation
											JOINT mixamorig1:LeftHandIndex4
											{
												OFFSET 2.712151 0.000000 0.000000
												CHANNELS 6 Xposition Yposition Zposition Xrotation Yrotation Zrotation
												End Site
												{
													OFFSET 2.712097 -0.000549 -0.016291
												}
											}
										}
									}
								}
								JOINT mixamorig1:LeftHandMiddle1
								{
									OFFSET 12.393951 0.000000 0.000000
									CHANNELS 6 Xposition Yposition Zposition Xrotation Yrotation Zrotation
									JOINT mixamorig1:LeftHandMiddle2
									{
										OFFSET 3.432213 0.000000 0.000000
										CHANNELS 6 Xposition Yposition Zposition Xrotation Yrotation Zrotation
										JOINT mixamorig1:LeftHandMiddle3
										{
											OFFSET 3.160919 0.000000 0.000000
											CHANNELS 6 Xposition Yposition Zposition Xrotation Yrotation Zrotation
											JOINT mixamorig1:LeftHandMiddle4
											{
												OFFSET 2.876404 0.000000 0.000000
												CHANNELS 3 Xrotation Yrotation Zrotation
												End Site
												{
													OFFSET 2.876404 0.000000 0.000000
												}
											}
										}
									}
								}
								JOINT mixamorig1:LeftHandRing1
								{
									OFFSET 12.360489 -0.116104 -2.298636
									CHANNELS 6 Xposition Yposition Zposition Xrotation Yrotation Zrotation
									JOINT mixamorig1:LeftHandRing2
									{
										OFFSET 2.726105 0.000000 0.000000
										CHANNELS 6 Xposition Yposition Zposition Xrotation Yrotation Zrotation
										JOINT mixamorig1:LeftHandRing3
										{
											OFFSET 2.620300 0.000000 0.000000
											CHANNELS 6 Xposition Yposition Zposition Xrotation Yrotation Zrotation
											JOINT mixamorig1:LeftHandRing4
											{
												OFFSET 2.226906 0.000000 0.000000
												CHANNELS 6 Xposition Yposition Zposition Xrotation Yrotation Zrotation
												End Site
												{
													OFFSET 2.226898 0.000153 0.003196
												}
											}
										}
									}
								}
								JOINT mixamorig1:LeftHandPinky1
								{
									OFFSET 10.793266 -0.303589 -4.149957
									CHANNELS 6 Xposition Yposition Zposition Xrotation Yrotation Zrotation
									JOINT mixamorig1:LeftHandPinky2
									{
										OFFSET 2.734612 0.000000 0.000000
										CHANNELS 6 Xposition Yposition Zposition Xrotation Yrotation Zrotation
										JOINT mixamorig1:LeftHandPinky3
										{
											OFFSET 2.194000 0.000000 0.000000
											CHANNELS 6 Xposition Yposition Zposition Xrotation Yrotation Zrotation
											JOINT mixamorig1:LeftHandPinky4
											{
												OFFSET 1.975510 0.000000 0.000000
												CHANNELS 6 Xposition Yposition Zposition Xrotation Yrotation Zrotation
												End Site
												{
													OFFSET 1.975502 -0.000275 -0.005493
												}
											}
										}
									}
								}
							}
						}
					}
				}
				JOINT mixamorig1:RightShoulder
				{
					OFFSET -6.140200 12.877701 -1.741290
					CHANNELS 6 Xposition Yposition Zposition Xrotation Yrotation Zrotation
					JOINT mixamorig1:RightArm
					{
						OFFSET -12.558887 -3.380020 0.058096
						CHANNELS 3 Xrotation Yrotation Zrotation
						JOINT mixamorig1:RightForeArm
						{
							OFFSET -25.571100 0.000000 -0.000001
							CHANNELS 3 Xrotation Yrotation Zrotation
							JOINT mixamorig1:RightHand
							{
								OFFSET -23.401703 0.000000 -0.000001
								CHANNELS 3 Xrotation Yrotation Zrotation
								JOINT mixamorig1:RightHandThumb1
								{
									OFFSET -4.237885 -1.241806 2.593891
									CHANNELS 6 Xposition Yposition Zposition Xrotation Yrotation Zrotation
									JOINT mixamorig1:RightHandThumb2
									{
										OFFSET -3.173721 -1.832352 1.832350
										CHANNELS 6 Xposition Yposition Zposition Xrotation Yrotation Zrotation
										JOINT mixamorig1:RightHandThumb3
										{
											OFFSET -2.734779 -1.578934 1.578928
											CHANNELS 6 Xposition Yposition Zposition Xrotation Yrotation Zrotation
											JOINT mixamorig1:RightHandThumb4
											{
												OFFSET -2.254745 -1.301773 1.301779
												CHANNELS 6 Xposition Yposition Zposition Xrotation Yrotation Zrotation
												End Site
												{
													OFFSET -2.004616 -1.260025 1.693210
												}
											}
										}
									}
								}
								JOINT mixamorig1:RightHandIndex1
								{
									OFFSET -12.582405 -0.171967 2.675169
									CHANNELS 6 Xposition Yposition Zposition Xrotation Yrotation Zrotation
									JOINT mixamorig1:RightHandIndex2
									{
										OFFSET -3.117424 0.000000 0.000000
										CHANNELS 6 Xposition Yposition Zposition Xrotation Yrotation Zrotation
										JOINT mixamorig1:RightHandIndex3
										{
											OFFSET -2.856110 0.000000 0.000000
											CHANNELS 6 Xposition Yposition Zposition Xrotation Yrotation Zrotation
											JOINT mixamorig1:RightHandIndex4
											{
												OFFSET -2.534607 0.000000 0.000000
												CHANNELS 6 Xposition Yposition Zposition Xrotation Yrotation Zrotation
												End Site
												{
													OFFSET -2.534599 -0.000092 -0.005299
												}
											}
										}
									}
								}
								JOINT mixamorig1:RightHandMiddle1
								{
									OFFSET -12.213303 0.000000 -0.000000
									CHANNELS 6 Xposition Yposition Zposition Xrotation Yrotation Zrotation
									JOINT mixamorig1:RightHandMiddle2
									{
										OFFSET -3.479240 0.000000 0.000000
										CHANNELS 6 Xposition Yposition Zposition Xrotation Yrotation Zrotation
										JOINT mixamorig1:RightHandMiddle3
										{
											OFFSET -3.226028 0.000000 0.000000
											CHANNELS 6 Xposition Yposition Zposition Xrotation Yrotation Zrotation
											JOINT mixamorig1:RightHandMiddle4
											{
												OFFSET -2.928001 0.000000 0.000000
												CHANNELS 6 Xposition Yposition Zposition Xrotation Yrotation Zrotation
												End Site
												{
													OFFSET -2.927994 -0.000046 -0.002500
												}
											}
										}
									}
								}
								JOINT mixamorig1:RightHandRing1
								{
									OFFSET -12.155838 -0.109528 -2.139221
									CHANNELS 6 Xposition Yposition Zposition Xrotation Yrotation Zrotation
									JOINT mixamorig1:RightHandRing2
									{
										OFFSET -2.821602 0.000000 0.000000
										CHANNELS 6 Xposition Yposition Zposition Xrotation Yrotation Zrotation
										JOINT mixamorig1:RightHandRing3
										{
											OFFSET -2.687714 0.000000 0.000000
											CHANNELS 6 Xposition Yposition Zposition Xrotation Yrotation Zrotation
											JOINT mixamorig1:RightHandRing4
											{
												OFFSET -2.368401 0.000000 0.000000
												CHANNELS 6 Xposition Yposition Zposition Xrotation Yrotation Zrotation
												End Site
												{
													OFFSET -2.368408 0.000122 0.004098
												}
											}
										}
									}
								}
								JOINT mixamorig1:RightHandPinky1
								{
									OFFSET -10.912514 -0.136993 -4.154601
									CHANNELS 6 Xposition Yposition Zposition Xrotation Yrotation Zrotation
									JOINT mixamorig1:RightHandPinky2
									{
										OFFSET -2.640511 0.000000 0.000000
										CHANNELS 6 Xposition Yposition Zposition Xrotation Yrotation Zrotation
										JOINT mixamorig1:RightHandPinky3
										{
											OFFSET -2.149010 0.000000 0.000000
											CHANNELS 6 Xposition Yposition Zposition Xrotation Yrotation Zrotation
											JOINT mixamorig1:RightHandPinky4
											{
												OFFSET -1.888405 0.000000 0.000000
												CHANNELS 6 Xposition Yposition Zposition Xrotation Yrotation Zrotation
												End Site
												{
													OFFSET -1.888397 -0.000076 -0.002499
												}
											}
										}
									}
								}
							}
						}
					}
				}
			}
		}
	}
	JOINT mixamorig1:LeftUpLeg
	{
		OFFSET 8.078200 -5.402397 -0.535900
		CHANNELS 6 Xposition Yposition Zposition Xrotation Yrotation Zrotation
		JOINT mixamorig1:LeftLeg
		{
			OFFSET 0.166247 -42.704498 -2.695473
			CHANNELS 3 Xrotation Yrotation Zrotation
			JOINT mixamorig1:LeftFoot
			{
				OFFSET -0.166255 -42.074757 -2.882279
				CHANNELS 3 Xrotation Yrotation Zrotation
				JOINT mixamorig1:LeftToeBase
				{
					OFFSET 1.133370 -9.116460 13.321884
					CHANNELS 3 Xrotation Yrotation Zrotation
					JOINT mixamorig1:LeftToe_End
					{
						OFFSET 0.591577 -0.054453 6.177401
						CHANNELS 3 Xrotation Yrotation Zrotation
						End Site
						{
							OFFSET 0.591577 -0.054453 6.177402
						}
					}
				}
			}
		}
	}
	JOINT mixamorig1:RightUpLeg
	{
		OFFSET -8.078200 -5.402397 -0.751800
		CHANNELS 6 Xposition Yposition Zposition Xrotation Yrotation Zrotation
		JOINT mixamorig1:RightLeg
		{
			OFFSET -0.166221 -42.704521 -2.464558
			CHANNELS 3 Xrotation Yrotation Zrotation
			JOINT mixamorig1:RightFoot
			{
				OFFSET 0.166220 -42.074753 -2.968993
				CHANNELS 3 Xrotation Yrotation Zrotation
				JOINT mixamorig1:RightToeBase
				{
					OFFSET -1.133402 -9.116828 13.416508
					CHANNELS 3 Xrotation Yrotation Zrotation
					JOINT mixamorig1:RightToe_End
					{
						OFFSET -0.591581 -0.054615 6.151378
						CHANNELS 3 Xrotation Yrotation Zrotation
						End Site
						{
							OFFSET -0.591581 -0.054615 6.151378
						}
					}
				}
			}
		}
	}
}
MOTION
Frames: 4
Frame Time: 0.016667
-0.431386 94.192253 0.448322 3.701555 -3.616716 -1.285681 -0.000000 9.717301 -1.180200 2.870981 1.574067 0.488974 5.779065 3.296851 0.041290 5.779067 3.296852 0.041290 0.000000 14.575886 -1.770349 -1.284138 -0.453767 -0.505542 -0.000000 6.720197 1.972204 -1.284121 -0.453767 -0.505543 -0.000000 20.999832 6.162799 -0.000000 -0.000000 0.000000 6.140197 12.877687 -1.799409 -3.200149 -7.488076 -10.433636 30.065000 -10.085203 -69.254976 89.241530 -73.303550 98.832421 -1.216633 -27.660161 17.312197 4.128803 -1.207087 2.573353 5.010109 -0.240072 16.811951 3.106246 -1.793404 1.793399 17.050684 33.838779 -5.591693 2.788612 -1.609999 1.610024 -5.686346 -19.493134 -1.861308 2.332951 -1.346905 1.346929 -0.000004 -0.000006 -0.000002 11.999938 -0.333892 2.508152 7.338916 3.827314 -78.813976 3.298482 0.000006 0.000006 5.569823 5.998103 -93.784938 3.081008 -0.000017 0.000015 2.299529 4.346796 -58.498992 2.712146 -0.000018 0.000008 0.000001 -0.000002 0.000002 12.393957 0.000025 -0.000016 1.878615 10.470640 -70.864155 3.432206 -0.000011 0.000005 4.891842 6.086509 -87.925080 3.160928 -0.000024 0.000007 2.661425 6.037644 -63.633307 0.000003 0.000000 -0.000001 12.360504 -0.116118 -2.298648 -0.874522 19.679273 -76.837463 2.726093 -0.000023 0.000000 5.931211 5.000136 -92.540102 2.620286 -0.000021 0.000006 3.492879 5.772844 -69.252012 2.226913 -0.000014 0.000006 0.000001 0.000002 -0.000003 10.793249 -0.303584 -4.149971 -6.204725 25.233504 -82.488966 2.734595 -0.000016 -0.000013 3.255922 5.097987 -73.817133 2.194003 0.000005 0.000008 6.527009 3.307185 -89.959745 1.975507 -0.000001 0.000004 0.000001 0.000001 0.000001 -6.140203 12.877711 -1.741284 -3.739999 15.876447 17.802451 7.676670 6.768420 60.993999 100.738651 46.473095 -108.896534 -5.677181 19.272974 -2.073750 -4.237879 -1.241822 2.593882 5.007312 0.239300 -16.816733 -3.173736 -1.832332 1.832365 17.048456 -33.839803 5.588433 -2.734782 -1.578936 1.578930 -5.904771 20.380216 2.630609 -2.254753 -1.301771 1.301788 -0.000000 -0.000003 -0.000000 -12.582399 -0.171953 2.675168 7.339448 -3.828280 78.807126 -3.117412 0.000003 -0.000003 5.570739 -5.998972 93.784938 -2.856111 0.000015 0.000009 1.667051 -4.100334 62.122121 -2.534601 0.000000 -0.000006 -0.000001 -0.000000 0.000001 -12.213322 0.000000 -0.000010 1.878221 -10.470919 70.857141 -3.479243 0.000010 -0.000002 4.892677 -6.087389 87.925087 -3.226015 -0.000006 0.000006 -1.992593 -4.352675 67.041572 -2.928007 0.000000 -0.000003 0.000001 -0.000001 -0.000001 -12.155852 -0.109528 -2.139218 -0.876013 -19.679184 76.830175 -2.821607 -0.000000 0.000002 5.932050 -5.000959 92.540123 -2.687720 0.000011 -0.000001 -2.836804 -3.600667 68.506688 -2.368392 -0.000002 -0.000014 -0.000001 0.000003 0.000002 -10.912523 -0.136998 -4.154593 -6.206819 -25.232869 82.481522 -2.640524 0.000006 -0.000005 3.256523 -5.098851 73.817099 -2.148995 -0.000002 0.000003 0.187154 -3.266714 81.669856 -1.888392 0.000002 0.000002 -0.000003 0.000002 0.000001 8.078201 -5.402394 -0.535905 -31.377978 -1.811617 3.987487 80.111227 1.528180 0.129655 -2.638889 0.327640 2.175413 0.186982 0.000001 -0.000002 -0.000001 -0.000000 0.000002 -8.078202 -5.402382 -0.751802 -7.009452 -8.569113 8.366466 38.215865 -1.737378 -6.569456 -16.389514 0.359690 -2.476846 -25.379624 -2.841973 1.833467 0.000000 0.000001 -0.000000 
-0.278839 95.569870 3.532586 3.937935 -3.830272 -0.413978 -0.000000 9.717297 -1.180200 2.835907 1.829604 0.301317 5.717815 3.770272 -0.316297 5.717815 3.770272 -0.316297 0.000000 14.575887 -1.770357 -1.019026 -0.453741 -0.661744 -0.000000 6.720213 1.972203 -1.019027 -0.453742 -0.661744 0.000001 20.999786 6.162798 -0.000001 -0.000000 -0.000000 6.140199 12.877691 -1.799413 -3.116807 -7.290683 -9.781155 32.927744 -10.102105 -68.544698 95.550016 -71.057088 105.843207 -0.994683 -25.790152 19.158908 4.128810 -1.207085 2.573356 5.010112 -0.240066 16.811947 3.106251 -1.793420 1.793375 16.700728 34.041499 -5.389927 2.788620 -1.610015 1.610007 -5.681689 -19.507220 -1.689278 2.332950 -1.346905 1.346935 -0.000003 -0.000006 0.000002 11.999923 -0.333876 2.508166 7.348507 3.838604 -79.066085 3.298483 -0.000010 0.000006 5.589842 5.996733 -94.006093 3.081007 -0.000028 0.000008 2.316276 4.357900 -58.719348 2.712151 -0.000019 -0.000005 -0.000001 -0.000001 0.000003 12.393944 0.000005 -0.000007 1.980521 10.564335 -71.345636 3.432218 -0.000013 -0.000003 4.954650 6.089656 -88.624437 3.160915 -0.000008 -0.000004 2.734039 6.067502 -64.334030 0.000001 0.000000 -0.000002 12.360496 -0.116101 -2.298648 -0.700436 19.767092 -77.380436 2.726079 -0.000013 0.000003 5.960299 4.995703 -92.862897 2.620281 -0.000007 -0.000002 3.528591 5.782113 -69.575100 2.226904 -0.000000 0.000012 -0.000000 -0.000001 0.000004 10.793268 -0.303588 -4.149968 -5.983908 25.359618 -82.973384 2.734579 -0.000018 -0.000003 3.297034 5.114213 -74.308954 2.193972 -0.000010 -0.000007 6.551027 3.295625 -90.450631 1.975518 -0.000017 0.000006 -0.000000 -0.000001 -0.000000 -6.140196 12.877720 -1.741290 -3.884456 16.460481 18.006595 6.694466 7.125075 60.945006 101.439080 45.109848 -110.129089 -5.901990 19.278600 -0.956970 -4.237886 -1.241797 2.593887 5.007310 0.239299 -16.816733 -3.173726 -1.832339 1.832347 16.837227 -34.019308 5.519690 -2.734773 -1.578926 1.578943 -5.927353 20.334542 3.163715 -2.254769 -1.301777 1.301780 0.000003 0.000000 0.000003 -12.582372 -0.171953 2.675176 7.297796 -3.824222 78.400313 -3.117410 -0.000007 0.000009 5.521986 -6.001966 93.246986 -2.856132 -0.000001 0.000001 1.628979 -4.067139 61.586839 -2.534614 -0.000004 -0.000008 0.000003 -0.000000 -0.000000 -12.213322 -0.000025 -0.000004 1.846852 -10.447861 70.484615 -3.479256 0.000001 -0.000002 4.875896 -6.086427 87.738117 -3.225998 -0.000020 0.000014 -2.006242 -4.329510 66.856576 -2.928003 -0.000019 0.000000 0.000002 -0.000001 0.000000 -12.155867 -0.109528 -2.139220 -0.976702 -19.635757 76.417584 -2.821613 -0.000006 0.000001 5.922812 -5.002336 92.437280 -2.687693 -0.000004 -0.000004 -2.836800 -3.600629 68.506688 -2.368399 0.000014 -0.000008 0.000001 0.000000 -0.000000 -10.912508 -0.136988 -4.154603 -6.291918 -25.043315 81.681911 -2.640488 0.000011 0.000004 3.220389 -5.084233 73.383887 -2.149002 0.000005 0.000003 0.166456 -3.229059 81.238673 -1.888396 -0.000015 -0.000004 -0.000000 -0.000002 -0.000000 8.078202 -5.402388 -0.535896 -30.962559 -1.655244 2.901469 73.784990 3.543668 0.102316 -2.444920 0.767347 -1.835473 0.114787 0.182613 0.512167 0.000004 -0.000001 -0.000001 -8.078203 -5.402389 -0.751801 -4.719621 -9.252784 6.995394 35.208532 -0.535229 -7.203129 -9.713164 0.265370 -2.159903 -30.960582 -2.415831 1.557328 0.000000 -0.000000 0.000000 
-0.115660 96.910446 6.625224 4.189355 -4.000464 0.431746 0.000000 9.717318 -1.180200 2.801307 2.067037 0.110882 5.659248 4.211585 -0.689419 5.659241 4.211583 -0.689418 0.000000 14.575888 -1.770353 -0.792457 -0.469235 -0.775216 0.000000 6.720199 1.972201 -0.792456 -0.469234 -0.775216 0.000000 20.999817 6.162801 0.000001 0.000000 -0.000000 6.140199 12.877694 -1.799417 -3.071769 -7.042270 -9.371567 35.747670 -9.899492 -67.663296 101.292184 -68.778174 112.076035 -1.000362 -23.818272 20.441248 4.128803 -1.207102 2.573366 5.010111 -0.240068 16.811949 3.106252 -1.793382 1.793384 16.205698 34.328213 -5.106258 2.788614 -1.610022 1.610018 -5.676611 -19.522533 -1.502885 2.332954 -1.346921 1.346917 -0.000002 -0.000006 -0.000000 11.999941 -0.333879 2.508168 7.349907 3.840552 -79.468384 3.298442 0.000008 -0.000016 5.609939 5.995287 -94.228067 3.081003 -0.000009 -0.000011 2.333137 4.368993 -58.940510 2.712142 -0.000009 -0.000010 -0.000000 -0.000002 0.000000 12.393949 -0.000009 0.000003 2.096059 10.665288 -71.946836 3.432223 -0.000012 -0.000005 5.021497 6.092165 -89.368674 3.160919 0.000014 -0.000005 2.807020 6.096463 -65.034869 -0.000000 -0.000000 0.000001 12.360495 -0.116112 -2.298641 -0.498388 19.862754 -78.047554 2.726097 -0.000019 0.000002 5.990740 4.990848 -93.200786 2.620289 -0.000029 0.000007 3.565953 5.791600 -69.913270 2.226899 -0.000016 -0.000003 -0.000001 -0.000001 -0.000000 10.793274 -0.303580 -4.149949 -5.730912 25.499350 -83.562932 2.734595 0.000002 -0.000007 3.343069 5.130953 -74.807353 2.193973 0.000021 -0.000004 6.575249 3.283675 -90.947978 1.975512 -0.000032 0.000010 -0.000001 0.000001 -0.000001 -6.140197 12.877720 -1.741289 -4.032190 17.041713 18.211303 5.713220 7.485252 60.917952 102.102244 43.769136 -111.323757 -6.116263 19.366061 0.167614 -4.237890 -1.241812 2.593902 5.007317 0.239296 -16.816732 -3.173720 -1.832325 1.832356 16.592353 -34.227263 5.440421 -2.734777 -1.578933 1.578948 -5.952206 20.283553 3.758353 -2.254756 -1.301760 1.301784 -0.000001 0.000000 0.000001 -12.582392 -0.171964 2.675175 7.282966 -3.829992 77.872039 -3.117399 0.000002 0.000000 5.474958 -6.004388 92.728240 -2.856099 0.000019 0.000004 1.592556 -4.034792 61.070613 -2.534606 0.000003 -0.000007 0.000000 -0.000000 -0.000000 -12.213324 0.000022 0.000009 1.809120 -10.415679 69.983771 -3.479280 -0.000008 -0.000004 4.859441 -6.085434 87.554802 -3.226019 -0.000020 0.000009 -2.019578 -4.306754 66.675180 -2.927997 0.000012 0.000012 0.000002 0.000003 0.000001 -12.155869 -0.109524 -2.139220 -1.104314 -19.579494 75.892643 -2.821614 -0.000002 0.000006 5.914229 -5.003615 92.341658 -2.687732 -0.000006 -0.000004 -2.836787 -3.600621 68.506688 -2.368387 0.000031 -0.000007 0.000001 0.000001 0.000000 -10.912528 -0.136984 -4.154593 -6.395287 -24.805300 80.671159 -2.640519 0.000011 -0.000006 3.188176 -5.070967 72.997012 -2.148988 -0.000008 -0.000003 0.148204 -3.195314 80.853642 -1.888404 -0.000017 -0.000004 0.000000 -0.000000 -0.000000 8.078200 -5.402399 -0.535899 -30.479494 -1.466607 1.612041 67.067533 6.053591 0.290894 -1.869146 1.029336 -3.537271 -0.341103 -0.002412 0.608762 -0.000002 -0.000002 0.000001 -8.078202 -5.402388 -0.751800 -2.759803 -9.969340 5.265348 32.061393 1.062517 -7.012611 -1.486384 0.141618 -1.068708 -32.674522 -1.217996 1.327629 -0.000000 -0.000002 0.000000 
0.071743 98.192009 9.750788 4.366253 -4.084650 1.226381 0.000000 9.717299 -1.180198 2.781104 2.261302 -0.094373 5.632323 4.573555 -1.117508 5.632325 4.573554 -1.117507 -0.000000 14.575878 -1.770354 -0.656091 -0.519078 -0.770466 0.000001 6.720212 1.972201 -0.656073 -0.519078 -0.770467 0.000000 20.999771 6.162799 0.000001 0.000000 -0.000000 6.140200 12.877687 -1.799420 -3.121194 -6.657041 -9.664763 38.536112 -9.129331 -66.112236 106.542714 -66.863249 118.359925 -1.304228 -21.546025 20.238059 4.128803 -1.207104 2.573372 5.010110 -0.240066 16.811954 3.106249 -1.793394 1.793366 15.207543 34.901908 -4.533442 2.788615 -1.610003 1.610016 -5.669533 -19.543382 -1.247397 2.332943 -1.346935 1.346923 -0.000001 -0.000006 -0.000002 11.999907 -0.333887 2.508179 7.322070 3.810628 -80.400397 3.298475 -0.000001 -0.000006 5.631408 5.993687 -94.465218 3.081018 0.000007 -0.000003 2.351220 4.380776 -59.176766 2.712142 -0.000010 -0.000003 0.000003 -0.000001 0.000000 12.393965 -0.000004 0.000016 2.262825 10.797548 -73.005098 3.432237 -0.000016 -0.000010 5.107723 6.094141 -90.327934 3.160920 -0.000023 -0.000004 2.890735 6.128427 -65.834691 -0.000000 0.000002 -0.000001 12.360508 -0.116116 -2.298627 -0.188541 19.993333 -79.188633 2.726097 -0.000026 -0.000010 6.028765 4.984518 -93.623165 2.620294 -0.000028 -0.000015 3.612648 5.802983 -70.336065 2.226908 -0.000001 -0.000012 -0.000001 -0.000004 -0.000001 10.793270 -0.303586 -4.149940 -5.342927 25.702765 -84.560494 2.734597 -0.000012 -0.000004 3.394601 5.149113 -75.363385 2.193971 0.000011 -0.000011 6.602151 3.270081 -91.502815 1.975524 0.000002 0.000001 -0.000000 0.000001 0.000000 -6.140201 12.877716 -1.741292 -4.179052 17.603283 18.414552 4.758497 7.842669 60.931284 102.689142 42.538609 -112.481925 -6.301713 19.676250 1.290381 -4.237891 -1.241810 2.593893 5.007312 0.239306 -16.816728 -3.173720 -1.832329 1.832348 16.189620 -34.569452 5.312368 -2.734790 -1.578910 1.578941 -5.982751 20.218514 4.510836 -2.254761 -1.301771 1.301783 -0.000000 0.000000 0.000003 -12.582371 -0.171961 2.675179 7.332092 -3.860941 77.050285 -3.117401 -0.000008 0.000007 5.434735 -6.006145 92.284824 -2.856100 0.000004 0.000004 1.561640 -4.006860 60.629369 -2.534594 -0.000013 0.000000 -0.000002 -0.000001 0.000001 -12.213308 -0.000011 0.000000 1.798437 -10.358519 69.186668 -3.479251 -0.000005 0.000008 4.845413 -6.084513 87.398452 -3.226012 -0.000010 0.000001 -2.030898 -4.287300 66.520510 -2.928002 -0.000001 -0.000008 0.000001 -0.000000 -0.000003 -12.155850 -0.109527 -2.139218 -1.296220 -19.492267 75.099057 -2.821590 -0.000004 -0.000001 5.908211 -5.004490 92.274490 -2.687694 0.000008 0.000004 -2.836772 -3.600579 68.506695 -2.368386 0.000013 -0.000001 0.000003 -0.000001 0.000000 -10.912510 -0.136994 -4.154597 -6.536721 -24.436025 79.094062 -2.640517 0.000001 0.000007 3.169473 -5.063158 72.772244 -2.149007 0.000023 0.000001 0.137729 -3.175653 80.630206 -1.888399 -0.000000 -0.000005 0.000001 -0.000000 0.000001 8.078200 -5.402407 -0.535897 -29.611455 -1.433531 0.221329 59.774933 8.858261 0.534970 -1.252348 0.977308 -4.064429 -0.755319 -0.290117 0.435096 -0.000001 -0.000000 -0.000000 -8.078200 -5.402392 -0.751800 -0.249959 -10.810220 3.574887 27.699316 2.624520 -6.256793 7.435447 0.485687 -0.815265 -40.502738 0.403243 0.648649 -0.000000 -0.000000 -0.000000 
